<?xml version="1.0" encoding="utf-8"?>
<!-- Generator: Adobe Illustrator 16.0.1, SVG Export Plug-In . SVG Version: 6.00 Build 0)  -->
<!DOCTYPE svg PUBLIC "-//W3C//DTD SVG 1.1//EN" "http://www.w3.org/Graphics/SVG/1.1/DTD/svg11.dtd">
<svg version="1.1" id="Layer_1" xmlns="http://www.w3.org/2000/svg" xmlns:xlink="http://www.w3.org/1999/xlink" x="0px" y="0px"
	 width="22px" height="22px" viewBox="0 0 22 22" enable-background="new 0 0 22 22" xml:space="preserve">
<path fill="#FFFFFF" d="M11,0C4.925,0,0,4.926,0,11s4.925,11,11,11c6.077,0,11-4.926,11-11S17.076,0,11,0z M9.988,2.5h2l1,1l-1,9.5
	h-2l-1-9.5L9.988,2.5z M11,19c-1.104,0-2-0.896-2-2s0.896-2,2-2c1.106,0,2,0.896,2,2S12.105,19,11,19z"/>
</svg>
